{
  "accessors": [
    {
      "bufferView": 2,
      "componentType": 5126,
      "count": 65532,
      "max": [
        0.39893460273742676,
        0.44901397824287415,
        0.39977529644966125
      ],
      "min": [
        -0.23804879188537598,
        -0.4756985008716583,
        -0.3063020706176758
      ],
      "type": "VEC3"
    },
    {
      "bufferView": 2,
      "byteOffset": 786384,
      "componentType": 5126,
      "count": 65532,
      "max": [
        1.0,
        1.0,
        1.0
      ],
      "min": [
        -1.0,
        -1.0,
        -1.0
      ],
      "type": "VEC3"
    },
    {
      "bufferView": 3,
      "componentType": 5126,
      "count": 65532,
      "max": [
        1.0,
        0.9997701048851013,
        0.9999996423721313,
        1.0
      ],
      "min": [
        -0.9999895691871643,
        -1.0,
        -1.0,
        -1.0
      ],
      "type": "VEC4"
    },
    {
      "bufferView": 1,
      "componentType": 5126,
      "count": 65532,
      "max": [
        0.999967634677887,
        0.9958322048187256
      ],
      "min": [
        0.004157071001827717,
        0.022416982799768448
      ],
      "type": "VEC2"
    },
    {
      "bufferView": 1,
      "byteOffset": 524256,
      "componentType": 5126,
      "count": 65532,
      "max": [
        0.999967634677887,
        0.9958322048187256
      ],
      "min": [
        0.004157071001827717,
        0.022416982799768448
      ],
      "type": "VEC2"
    },
    {
      "bufferView": 1,
      "byteOffset": 1048512,
      "componentType": 5126,
      "count": 65532,
      "max": [
        0.999967634677887,
        0.9958322048187256
      ],
      "min": [
        0.004157071001827717,
        0.022416982799768448
      ],
      "type": "VEC2"
    },
    {
      "bufferView": 1,
      "byteOffset": 1572768,
      "componentType": 5126,
      "count": 65532,
      "max": [
        0.999967634677887,
        0.9958322048187256
      ],
      "min": [
        0.004157071001827717,
        0.022416982799768448
      ],
      "type": "VEC2"
    },
    {
      "bufferView": 0,
      "componentType": 5125,
      "count": 357846,
      "type": "SCALAR"
    },
    {
      "bufferView": 2,
      "byteOffset": 1572768,
      "componentType": 5126,
      "count": 65532,
      "max": [
        0.39893460273742676,
        0.4628901183605194,
        0.3930665850639343
      ],
      "min": [
        -0.4021541476249695,
        -0.4754691421985626,
        -0.40211620926856995
      ],
      "type": "VEC3"
    },
    {
      "bufferView": 2,
      "byteOffset": 2359152,
      "componentType": 5126,
      "count": 65532,
      "max": [
        1.0,
        1.0,
        1.0
      ],
      "min": [
        -1.0,
        -1.0,
        -1.0
      ],
      "type": "VEC3"
    },
    {
      "bufferView": 3,
      "byteOffset": 1048512,
      "componentType": 5126,
      "count": 65532,
      "max": [
        1.0,
        1.0,
        0.9999935030937195,
        1.0
      ],
      "min": [
        -1.0,
        -0.9999692440032959,
        -0.9999998211860657,
        -1.0
      ],
      "type": "VEC4"
    },
    {
      "bufferView": 1,
      "byteOffset": 2097024,
      "componentType": 5126,
      "count": 65532,
      "max": [
        0.999967634677887,
        0.9977810382843018
      ],
      "min": [
        5.825422704219818e-06,
        0.013647476211190224
      ],
      "type": "VEC2"
    },
    {
      "bufferView": 1,
      "byteOffset": 2621280,
      "componentType": 5126,
      "count": 65532,
      "max": [
        0.999967634677887,
        0.9977810382843018
      ],
      "min": [
        5.825422704219818e-06,
        0.013647476211190224
      ],
      "type": "VEC2"
    },
    {
      "bufferView": 1,
      "byteOffset": 3145536,
      "componentType": 5126,
      "count": 65532,
      "max": [
        0.999967634677887,
        0.9977810382843018
      ],
      "min": [
        5.825422704219818e-06,
        0.013647476211190224
      ],
      "type": "VEC2"
    },
    {
      "bufferView": 1,
      "byteOffset": 3669792,
      "componentType": 5126,
      "count": 65532,
      "max": [
        0.999967634677887,
        0.9977810382843018
      ],
      "min": [
        5.825422704219818e-06,
        0.013647476211190224
      ],
      "type": "VEC2"
    },
    {
      "bufferView": 0,
      "byteOffset": 1431384,
      "componentType": 5125,
      "count": 357666,
      "type": "SCALAR"
    },
    {
      "bufferView": 2,
      "byteOffset": 3145536,
      "componentType": 5126,
      "count": 65532,
      "max": [
        0.17485222220420837,
        0.2040027379989624,
        0.401208758354187
      ],
      "min": [
        -0.4014660716056824,
        -0.4765012562274933,
        -0.40234556794166565
      ],
      "type": "VEC3"
    },
    {
      "bufferView": 2,
      "byteOffset": 3931920,
      "componentType": 5126,
      "count": 65532,
      "max": [
        1.0,
        1.0,
        1.0
      ],
      "min": [
        -1.0,
        -1.0,
        -1.0
      ],
      "type": "VEC3"
    },
    {
      "bufferView": 3,
      "byteOffset": 2097024,
      "componentType": 5126,
      "count": 65532,
      "max": [
        0.9999999403953552,
        0.9999997615814209,
        1.0,
        1.0
      ],
      "min": [
        -1.0,
        -1.0,
        -1.0,
        -1.0
      ],
      "type": "VEC4"
    },
    {
      "bufferView": 1,
      "byteOffset": 4194048,
      "componentType": 5126,
      "count": 65532,
      "max": [
        0.9997234344482422,
        0.9987553954124451
      ],
      "min": [
        0.004157071001827717,
        0.0021983981132507324
      ],
      "type": "VEC2"
    },
    {
      "bufferView": 1,
      "byteOffset": 4718304,
      "componentType": 5126,
      "count": 65532,
      "max": [
        0.9997234344482422,
        0.9987553954124451
      ],
      "min": [
        0.004157071001827717,
        0.0021983981132507324
      ],
      "type": "VEC2"
    },
    {
      "bufferView": 1,
      "byteOffset": 5242560,
      "componentType": 5126,
      "count": 65532,
      "max": [
        0.9997234344482422,
        0.9987553954124451
      ],
      "min": [
        0.004157071001827717,
        0.0021983981132507324
      ],
      "type": "VEC2"
    },
    {
      "bufferView": 1,
      "byteOffset": 5766816,
      "componentType": 5126,
      "count": 65532,
      "max": [
        0.9997234344482422,
        0.9987553954124451
      ],
      "min": [
        0.004157071001827717,
        0.0021983981132507324
      ],
      "type": "VEC2"
    },
    {
      "bufferView": 0,
      "byteOffset": 2862048,
      "componentType": 5125,
      "count": 353268,
      "type": "SCALAR"
    },
    {
      "bufferView": 2,
      "byteOffset": 4718304,
      "componentType": 5126,
      "count": 26647,
      "max": [
        0.16527654230594635,
        0.46185800433158875,
        0.3908303380012512
      ],
      "min": [
        -0.29510149359703064,
        -0.2798271179199219,
        -0.23353837430477142
      ],
      "type": "VEC3"
    },
    {
      "bufferView": 2,
      "byteOffset": 5038068,
      "componentType": 5126,
      "count": 26647,
      "max": [
        1.0,
        1.0,
        1.0
      ],
      "min": [
        -0.9999690055847168,
        -0.999225914478302,
        -0.9996902346611023
      ],
      "type": "VEC3"
    },
    {
      "bufferView": 3,
      "byteOffset": 3145536,
      "componentType": 5126,
      "count": 26647,
      "max": [
        0.9999995827674866,
        0.999715268611908,
        0.9999669194221497,
        1.0
      ],
      "min": [
        -0.995529294013977,
        -0.9999977946281433,
        -0.9999988675117493,
        -1.0
      ],
      "type": "VEC4"
    },
    {
      "bufferView": 1,
      "byteOffset": 6291072,
      "componentType": 5126,
      "count": 26647,
      "max": [
        0.9985024929046631,
        0.9997298121452332
      ],
      "min": [
        0.014657280407845974,
        0.008531930856406689
      ],
      "type": "VEC2"
    },
    {
      "bufferView": 1,
      "byteOffset": 6504248,
      "componentType": 5126,
      "count": 26647,
      "max": [
        0.9985024929046631,
        0.9997298121452332
      ],
      "min": [
        0.014657280407845974,
        0.008531930856406689
      ],
      "type": "VEC2"
    },
    {
      "bufferView": 1,
      "byteOffset": 6717424,
      "componentType": 5126,
      "count": 26647,
      "max": [
        0.9985024929046631,
        0.9997298121452332
      ],
      "min": [
        0.014657280407845974,
        0.008531930856406689
      ],
      "type": "VEC2"
    },
    {
      "bufferView": 1,
      "byteOffset": 6930600,
      "componentType": 5126,
      "count": 26647,
      "max": [
        0.9985024929046631,
        0.9997298121452332
      ],
      "min": [
        0.014657280407845974,
        0.008531930856406689
      ],
      "type": "VEC2"
    },
    {
      "bufferView": 0,
      "byteOffset": 4275120,
      "componentType": 5125,
      "count": 133314,
      "type": "SCALAR"
    }
  ],
  "asset": {
    "extras": {
      "author": "-X-ScornGames (https://sketchfab.com/XX-XX)",
      "license": "CC-BY-4.0 (http://creativecommons.org/licenses/by/4.0/)",
      "source": "https://sketchfab.com/3d-models/pyramid-of-x-i-531484c6b8554004af5ef4a6fcd68115",
      "title": "Pyramid_Of_X_I"
    },
    "generator": "Sketchfab-16.75.0",
    "version": "2.0"
  },
  "bufferViews": [
    {
      "buffer": 0,
      "byteLength": 4808376,
      "name": "floatBufferViews",
      "target": 34963
    },
    {
      "buffer": 0,
      "byteLength": 7143776,
      "byteOffset": 4808376,
      "byteStride": 8,
      "name": "floatBufferViews",
      "target": 34962
    },
    {
      "buffer": 0,
      "byteLength": 5357832,
      "byteOffset": 11952152,
      "byteStride": 12,
      "name": "floatBufferViews",
      "target": 34962
    },
    {
      "buffer": 0,
      "byteLength": 3571888,
      "byteOffset": 17309984,
      "byteStride": 16,
      "name": "floatBufferViews",
      "target": 34962
    }
  ],
  "buffers": [
    {
      "byteLength": 20881872,
      "uri": "scene.bin"
    }
  ],
  "images": [
    {
      "uri": "textures/tripo_material_f6e0ef0a-1e5d-4df8-80a1-f8daa94359b6_baseColor.jpeg"
    },
    {
      "uri": "textures/tripo_material_f6e0ef0a-1e5d-4df8-80a1-f8daa94359b6_metallicRoughness.png"
    },
    {
      "uri": "textures/tripo_material_f6e0ef0a-1e5d-4df8-80a1-f8daa94359b6_normal.jpeg"
    }
  ],
  "materials": [
    {
      "name": "tripo_material_f6e0ef0a-1e5d-4df8-80a1-f8daa94359b6",
      "normalTexture": {
        "index": 2,
        "texCoord": 2
      },
      "pbrMetallicRoughness": {
        "baseColorTexture": {
          "index": 0
        },
        "metallicRoughnessTexture": {
          "index": 1,
          "texCoord": 1
        }
      }
    }
  ],
  "meshes": [
    {
      "name": "Object_0",
      "primitives": [
        {
          "attributes": {
            "NORMAL": 1,
            "POSITION": 0,
            "TANGENT": 2,
            "TEXCOORD_0": 3,
            "TEXCOORD_1": 4,
            "TEXCOORD_2": 5,
            "TEXCOORD_3": 6
          },
          "indices": 7,
          "material": 0,
          "mode": 4
        }
      ]
    },
    {
      "name": "Object_1",
      "primitives": [
        {
          "attributes": {
            "NORMAL": 9,
            "POSITION": 8,
            "TANGENT": 10,
            "TEXCOORD_0": 11,
            "TEXCOORD_1": 12,
            "TEXCOORD_2": 13,
            "TEXCOORD_3": 14
          },
          "indices": 15,
          "material": 0,
          "mode": 4
        }
      ]
    },
    {
      "name": "Object_2",
      "primitives": [
        {
          "attributes": {
            "NORMAL": 17,
            "POSITION": 16,
            "TANGENT": 18,
            "TEXCOORD_0": 19,
            "TEXCOORD_1": 20,
            "TEXCOORD_2": 21,
            "TEXCOORD_3": 22
          },
          "indices": 23,
          "material": 0,
          "mode": 4
        }
      ]
    },
    {
      "name": "Object_3",
      "primitives": [
        {
          "attributes": {
            "NORMAL": 25,
            "POSITION": 24,
            "TANGENT": 26,
            "TEXCOORD_0": 27,
            "TEXCOORD_1": 28,
            "TEXCOORD_2": 29,
            "TEXCOORD_3": 30
          },
          "indices": 31,
          "material": 0,
          "mode": 4
        }
      ]
    }
  ],
  "nodes": [
    {
      "children": [
        1
      ],
      "matrix": [
        1.0,
        0.0,
        0.0,
        0.0,
        0.0,
        2.220446049250313e-16,
        -1.0,
        0.0,
        0.0,
        1.0,
        2.220446049250313e-16,
        0.0,
        0.0,
        0.0,
        0.0,
        1.0
      ],
      "name": "Sketchfab_model"
    },
    {
      "children": [
        2
      ],
      "name": "root"
    },
    {
      "children": [
        3
      ],
      "matrix": [
        1.0,
        0.0,
        0.0,
        0.0,
        0.0,
        2.220446049250313e-16,
        1.0,
        0.0,
        0.0,
        -1.0,
        2.220446049250313e-16,
        0.0,
        0.0,
        0.0,
        0.0,
        1.0
      ],
      "name": "GLTF_SceneRootNode"
    },
    {
      "children": [
        4,
        5,
        6,
        7
      ],
      "name": "tripo_node_f6e0ef0a-1e5d-4df8-80a1-f8daa94359b6_0"
    },
    {
      "mesh": 0,
      "name": "Object_4"
    },
    {
      "mesh": 1,
      "name": "Object_5"
    },
    {
      "mesh": 2,
      "name": "Object_6"
    },
    {
      "mesh": 3,
      "name": "Object_7"
    }
  ],
  "samplers": [
    {
      "magFilter": 9729,
      "minFilter": 9987,
      "wrapS": 10497,
      "wrapT": 10497
    }
  ],
  "scene": 0,
  "scenes": [
    {
      "name": "Sketchfab_Scene",
      "nodes": [
        0
      ]
    }
  ],
  "textures": [
    {
      "sampler": 0,
      "source": 0
    },
    {
      "sampler": 0,
      "source": 1
    },
    {
      "sampler": 0,
      "source": 2
    }
  ]
}
